<svg xmlns="http://www.w3.org/2000/svg" width="2700" height="1414" viewBox="0 0 2700 1414" version="1.1">
	<path d="M 2500.090 562.049 C 2467.172 566.174, 2437.254 580.790, 2414.048 604.084 C 2402.434 615.741, 2394.591 626.499, 2387.425 640.603 C 2357.932 698.648, 2370.435 768.978, 2418.147 813.415 C 2437.026 830.997, 2460.240 843.048, 2486.911 849.110 C 2498.179 851.671, 2523.322 852.689, 2535.500 851.077 C 2566.634 846.955, 2595.342 833.421, 2616.907 812.697 C 2622.704 807.127, 2625.946 801.333, 2625.972 796.500 C 2626.044 783.369, 2614.213 773.903, 2601.675 777.060 C 2598.156 777.946, 2594.978 780.045, 2588.792 785.567 C 2574.194 798.600, 2557.051 807.256, 2538 811.215 C 2525.233 813.868, 2503.590 813.307, 2491.083 809.999 C 2457.947 801.235, 2430.768 777.501, 2418.581 746.687 C 2413.536 733.933, 2411.805 725.359, 2411.274 710.500 C 2410.169 679.572, 2419.647 654.862, 2441.241 632.369 C 2481.135 590.814, 2546.892 589.318, 2590.285 628.978 C 2596.195 634.379, 2601.247 637.003, 2605.718 636.994 C 2620.380 636.965, 2630.053 622.517, 2624.133 609.487 C 2623.124 607.267, 2619.029 602.437, 2614.965 598.674 C 2596.149 581.254, 2569.455 568.138, 2543.259 563.444 C 2532.522 561.520, 2510.097 560.795, 2500.090 562.049 M 63.921 567.323 C 57.585 570.674, 53.599 578.387, 54.344 585.859 C 55.020 592.643, 58.614 598.219, 64.251 601.230 C 68.430 603.463, 69.148 603.505, 107.750 603.803 L 147 604.107 147 716.586 C 147 815.846, 147.182 829.500, 148.548 832.768 C 155.289 848.903, 177.711 848.903, 184.452 832.768 C 185.818 829.500, 186 815.841, 186 716.532 C 186 610.031, 186.094 603.999, 187.750 603.986 C 188.713 603.979, 205.250 603.962, 224.500 603.949 C 244.582 603.935, 261.409 603.491, 263.980 602.906 C 280.658 599.111, 284.557 577.017, 270.160 567.887 L 265.608 565 166.962 565 L 68.315 565 63.921 567.323 M 403.695 567.096 C 401.513 568.248, 398.633 571.085, 396.945 573.748 L 394 578.392 394 704.228 C 394 842.518, 393.597 833.805, 400.265 839.660 C 410 848.207, 424.553 845.716, 430.411 834.500 C 432.442 830.611, 432.508 829.027, 432.783 777.244 L 433.067 723.988 514.283 724.244 L 595.500 724.500 596 778 C 596.348 815.276, 596.850 832.277, 597.654 834.062 C 599.330 837.785, 605.365 842.729, 609.884 844.083 C 618.634 846.705, 628.819 842.136, 632.867 833.774 L 635 829.369 634.978 704.934 C 634.957 585.949, 634.875 580.325, 633.104 576.500 C 629.546 568.814, 623.564 564.983, 615.185 565.022 C 608.494 565.053, 602.683 568.010, 599.316 573.098 L 596.500 577.352 596.225 631.176 L 595.950 685 514.475 685 L 433 685 432.994 633.750 C 432.991 601.073, 432.609 581.131, 431.940 578.723 C 430.635 574.022, 425.572 568.137, 421.298 566.351 C 416.552 564.368, 408.194 564.722, 403.695 567.096 M 794.481 566.394 C 790.399 568.172, 785.331 574.138, 783.997 578.733 C 783.225 581.394, 782.992 619.094, 783.202 707.073 L 783.500 831.647 786.290 835.862 C 793.166 846.252, 806.579 847.892, 815.889 839.481 C 817.959 837.611, 820.201 834.375, 820.869 832.290 C 821.804 829.377, 822.018 799.454, 821.793 702.927 L 821.500 577.354 818.749 573.197 C 817.236 570.910, 814.216 568.131, 812.039 567.020 C 807.446 564.676, 799.105 564.379, 794.481 566.394 M 982.500 566.662 C 978.407 568.820, 975.131 571.917, 973.155 575.500 C 971.640 578.247, 971.500 589.136, 971.500 704.578 L 971.500 830.657 974.500 835.488 C 977.901 840.965, 982.827 844.001, 989.540 844.757 C 995.987 845.484, 1004.141 841.322, 1007.501 835.588 L 1010 831.324 1010 735.079 C 1010 677.831, 1010.368 638.968, 1010.908 639.167 C 1011.408 639.350, 1016.711 645.350, 1022.693 652.500 C 1028.675 659.650, 1046.368 680.800, 1062.011 699.500 C 1077.654 718.200, 1099.914 744.799, 1111.477 758.609 C 1123.039 772.418, 1142.850 796.107, 1155.500 811.249 C 1168.150 826.392, 1180.270 839.951, 1182.433 841.380 C 1187.496 844.724, 1192.330 845.594, 1197.767 844.140 C 1203.389 842.636, 1207.206 839.757, 1209.877 835.005 L 1212.023 831.187 1211.761 703.766 L 1211.500 576.344 1208.692 572.663 C 1200.867 562.404, 1185.133 562.404, 1177.308 572.663 L 1174.500 576.344 1174.235 673.172 C 1174.081 729.695, 1173.596 770, 1173.071 770 C 1172.576 770, 1151.563 745.362, 1126.375 715.250 C 1015.105 582.222, 1003.436 568.550, 999.631 566.750 C 995.045 564.580, 986.532 564.536, 982.500 566.662 M 1372.481 566.394 C 1368.399 568.172, 1363.331 574.138, 1361.997 578.733 C 1361.225 581.394, 1360.992 619.119, 1361.202 707.164 L 1361.500 831.828 1364.513 836.164 C 1368.100 841.325, 1374.750 845, 1380.500 845 C 1385.848 845, 1392.626 841.453, 1396.442 836.657 L 1399.500 832.815 1399.761 705.621 L 1400.022 578.427 1397.125 573.858 C 1392.213 566.112, 1380.954 562.702, 1372.481 566.394 M 1550 566.940 C 1548.075 567.959, 1545.117 570.527, 1543.426 572.646 C 1540.822 575.911, 1505.656 621.531, 1461.245 679.257 C 1455.001 687.373, 1449.241 695.571, 1448.446 697.475 C 1446.480 702.180, 1446.628 708.857, 1448.790 713.039 C 1449.775 714.942, 1462.728 732.250, 1477.575 751.500 C 1492.422 770.750, 1513.049 797.525, 1523.413 811 C 1533.776 824.475, 1543.631 836.957, 1545.312 838.738 C 1553.647 847.567, 1567.875 846.677, 1574.971 836.882 C 1578.436 832.098, 1579.595 825.923, 1578.082 820.304 C 1577.292 817.371, 1565.087 800.826, 1533.970 760.508 C 1505.489 723.603, 1491.251 704.383, 1491.840 703.633 C 1492.329 703.010, 1502.784 689.450, 1515.074 673.500 C 1527.363 657.550, 1545.961 633.475, 1556.402 620 C 1576.718 593.781, 1577.931 591.936, 1578.719 586.057 C 1579.715 578.634, 1574.289 569.272, 1567.298 566.351 C 1562.705 564.432, 1554.192 564.722, 1550 566.940 M 1731.500 566.610 C 1727.038 569.050, 1724.997 571.090, 1722.894 575.210 C 1721.065 578.793, 1721 583.256, 1721 705.074 C 1721 831.227, 1721 831.228, 1723.092 834.950 C 1725.516 839.263, 1731.819 843.688, 1736.895 844.640 C 1740.847 845.381, 1747.819 843.820, 1751.591 841.349 C 1752.961 840.451, 1755.301 837.643, 1756.791 835.108 L 1759.500 830.500 1759.500 705 C 1759.500 581.479, 1759.468 579.438, 1757.500 575.564 C 1756.400 573.400, 1753.787 570.263, 1751.694 568.594 C 1748.447 566.005, 1746.903 565.516, 1741.194 565.264 C 1736.421 565.054, 1733.639 565.441, 1731.500 566.610 M 1917.804 567.041 C 1915.771 568.114, 1912.846 570.647, 1911.304 572.668 L 1908.500 576.344 1908.213 701.922 C 1908.054 770.990, 1908.192 828.989, 1908.519 830.810 C 1908.846 832.630, 1910.691 835.866, 1912.620 838.001 C 1921.641 847.986, 1936.488 846.778, 1943.500 835.489 L 1946.500 830.660 1946.785 780.330 L 1947.070 730 2006.575 730 C 2063.662 730, 2066.235 729.921, 2069.914 728.044 C 2083.316 721.206, 2084.473 703.259, 2072.076 694.500 L 2067.829 691.500 2007.404 691.227 L 1946.979 690.955 1947.240 647.449 L 1947.500 603.943 2011.500 603.931 C 2051.201 603.924, 2077.201 603.533, 2079.980 602.903 C 2089.084 600.838, 2095 593.392, 2095 584 C 2095 578.670, 2092.656 572.805, 2089.320 569.788 C 2083.932 564.916, 2085.452 564.997, 2000.782 565.044 C 1924.122 565.087, 1921.378 565.153, 1917.804 567.041 M 2220.481 566.394 C 2216.299 568.216, 2211.290 574.208, 2210.027 578.901 C 2209.303 581.587, 2209.053 622.157, 2209.235 707.328 L 2209.500 831.828 2212.513 836.164 C 2216.104 841.331, 2222.760 845.009, 2228.462 844.978 C 2235.973 844.937, 2244.434 839.307, 2246.936 832.685 C 2247.667 830.750, 2248 790.581, 2248 704.273 L 2248 578.676 2245.473 574.364 C 2240.693 566.207, 2229.270 562.564, 2220.481 566.394" stroke="none" fill="#000000" fill-rule="evenodd"/>
</svg>